<mxfile host="65bd71144e">
    <diagram id="e9zVXH7LudiN53jZJwXP" name="Page-1">
        <mxGraphModel dx="1624" dy="484" grid="1" gridSize="10" guides="1" tooltips="1" connect="1" arrows="1" fold="1" page="1" pageScale="1" pageWidth="1169" pageHeight="827" math="0" shadow="0">
            <root>
                <mxCell id="0"/>
                <mxCell id="1" parent="0"/>
                <mxCell id="2" value="V11" style="rounded=1;whiteSpace=wrap;html=1;direction=south;" parent="1" vertex="1">
                    <mxGeometry x="120" y="89" width="30" height="50" as="geometry"/>
                </mxCell>
                <mxCell id="4" value="v1N" style="rounded=1;whiteSpace=wrap;html=1;direction=south;" parent="1" vertex="1">
                    <mxGeometry x="120" y="161" width="30" height="50" as="geometry"/>
                </mxCell>
                <mxCell id="5" value="Broadcast service" style="rounded=0;whiteSpace=wrap;html=1;strokeWidth=4;fontSize=17;" parent="1" vertex="1">
                    <mxGeometry x="695" y="290" width="120" height="112" as="geometry"/>
                </mxCell>
                <mxCell id="6" value="Th-client 1" style="rounded=0;whiteSpace=wrap;html=1;strokeWidth=4;" parent="1" vertex="1">
                    <mxGeometry x="290" y="265" width="60" height="60" as="geometry"/>
                </mxCell>
                <mxCell id="9" value="Th-client 2" style="rounded=0;whiteSpace=wrap;html=1;strokeWidth=4;" parent="1" vertex="1">
                    <mxGeometry x="283" y="398" width="60" height="60" as="geometry"/>
                </mxCell>
                <mxCell id="10" value="P2" style="rounded=1;whiteSpace=wrap;html=1;direction=south;" parent="1" vertex="1">
                    <mxGeometry x="120" y="404" width="30" height="50" as="geometry"/>
                </mxCell>
                <mxCell id="11" value="v21" style="rounded=1;whiteSpace=wrap;html=1;direction=south;" parent="1" vertex="1">
                    <mxGeometry x="120" y="485" width="30" height="50" as="geometry"/>
                </mxCell>
                <mxCell id="13" value="UI-proxy" style="rounded=0;whiteSpace=wrap;html=1;strokeWidth=4;" parent="1" vertex="1">
                    <mxGeometry x="414" y="332" width="60" height="60" as="geometry"/>
                </mxCell>
                <mxCell id="14" value="P1" style="rounded=1;whiteSpace=wrap;html=1;direction=south;" parent="1" vertex="1">
                    <mxGeometry x="120" y="270" width="30" height="50" as="geometry"/>
                </mxCell>
                <mxCell id="15" value="v2N" style="rounded=1;whiteSpace=wrap;html=1;direction=south;" parent="1" vertex="1">
                    <mxGeometry x="120" y="556" width="30" height="50" as="geometry"/>
                </mxCell>
                <mxCell id="21" style="edgeStyle=none;html=1;exitX=0;exitY=0;exitDx=0;exitDy=24.75;exitPerimeter=0;entryX=1;entryY=0.5;entryDx=0;entryDy=0;" parent="1" source="16" target="13" edge="1">
                    <mxGeometry relative="1" as="geometry"/>
                </mxCell>
                <mxCell id="24" value="load" style="edgeLabel;html=1;align=center;verticalAlign=middle;resizable=0;points=[];" parent="21" vertex="1" connectable="0">
                    <mxGeometry x="0.0416" y="2" relative="1" as="geometry">
                        <mxPoint as="offset"/>
                    </mxGeometry>
                </mxCell>
                <mxCell id="16" value="Clients" style="shape=cylinder3;whiteSpace=wrap;html=1;boundedLbl=1;backgroundOutline=1;size=15;strokeWidth=2;" parent="1" vertex="1">
                    <mxGeometry x="519" y="338.5" width="40" height="43" as="geometry"/>
                </mxCell>
                <mxCell id="19" value="" style="endArrow=classic;html=1;exitX=0;exitY=0.5;exitDx=0;exitDy=0;entryX=1;entryY=0.5;entryDx=0;entryDy=0;" parent="1" source="13" target="9" edge="1">
                    <mxGeometry width="50" height="50" relative="1" as="geometry">
                        <mxPoint x="330" y="480" as="sourcePoint"/>
                        <mxPoint x="380" y="430" as="targetPoint"/>
                    </mxGeometry>
                </mxCell>
                <mxCell id="23" value="load" style="edgeLabel;html=1;align=center;verticalAlign=middle;resizable=0;points=[];" parent="19" vertex="1" connectable="0">
                    <mxGeometry x="-0.2" y="1" relative="1" as="geometry">
                        <mxPoint as="offset"/>
                    </mxGeometry>
                </mxCell>
                <mxCell id="20" value="" style="endArrow=classic;html=1;entryX=1;entryY=0.5;entryDx=0;entryDy=0;exitX=0;exitY=0.5;exitDx=0;exitDy=0;" parent="1" source="13" target="6" edge="1">
                    <mxGeometry width="50" height="50" relative="1" as="geometry">
                        <mxPoint x="510" y="340" as="sourcePoint"/>
                        <mxPoint x="370" y="350" as="targetPoint"/>
                    </mxGeometry>
                </mxCell>
                <mxCell id="22" value="Load" style="edgeLabel;html=1;align=center;verticalAlign=middle;resizable=0;points=[];" parent="20" vertex="1" connectable="0">
                    <mxGeometry x="-0.045" y="-1" relative="1" as="geometry">
                        <mxPoint x="-2" as="offset"/>
                    </mxGeometry>
                </mxCell>
                <mxCell id="31" value="" style="endArrow=classic;html=1;exitX=1;exitY=0.25;exitDx=0;exitDy=0;entryX=0;entryY=0.25;entryDx=0;entryDy=0;strokeWidth=3;" parent="1" source="6" target="5" edge="1">
                    <mxGeometry width="50" height="50" relative="1" as="geometry">
                        <mxPoint x="640" y="410" as="sourcePoint"/>
                        <mxPoint x="690" y="360" as="targetPoint"/>
                    </mxGeometry>
                </mxCell>
                <mxCell id="36" value="push" style="edgeLabel;html=1;align=center;verticalAlign=middle;resizable=0;points=[];" parent="31" vertex="1" connectable="0">
                    <mxGeometry x="0.0344" y="5" relative="1" as="geometry">
                        <mxPoint x="-1" as="offset"/>
                    </mxGeometry>
                </mxCell>
                <mxCell id="33" value="" style="endArrow=classic;html=1;entryX=0;entryY=0.5;entryDx=0;entryDy=0;exitX=0.5;exitY=0;exitDx=0;exitDy=0;strokeWidth=3;" parent="1" source="14" target="6" edge="1">
                    <mxGeometry width="50" height="50" relative="1" as="geometry">
                        <mxPoint x="150" y="290" as="sourcePoint"/>
                        <mxPoint x="200" y="240" as="targetPoint"/>
                    </mxGeometry>
                </mxCell>
                <mxCell id="37" value="push" style="edgeLabel;html=1;align=center;verticalAlign=middle;resizable=0;points=[];" parent="33" vertex="1" connectable="0">
                    <mxGeometry x="0.0568" y="4" relative="1" as="geometry">
                        <mxPoint as="offset"/>
                    </mxGeometry>
                </mxCell>
                <mxCell id="38" value="" style="endArrow=classic;html=1;exitX=0.5;exitY=0;exitDx=0;exitDy=0;strokeWidth=3;entryX=0;entryY=0.5;entryDx=0;entryDy=0;" parent="1" source="10" target="9" edge="1">
                    <mxGeometry width="50" height="50" relative="1" as="geometry">
                        <mxPoint x="160" y="425" as="sourcePoint"/>
                        <mxPoint x="280" y="430" as="targetPoint"/>
                    </mxGeometry>
                </mxCell>
                <mxCell id="39" value="push" style="edgeLabel;html=1;align=center;verticalAlign=middle;resizable=0;points=[];" parent="38" vertex="1" connectable="0">
                    <mxGeometry x="0.0568" y="4" relative="1" as="geometry">
                        <mxPoint as="offset"/>
                    </mxGeometry>
                </mxCell>
                <mxCell id="40" value="" style="endArrow=classic;html=1;exitX=1;exitY=0.75;exitDx=0;exitDy=0;entryX=0;entryY=0.75;entryDx=0;entryDy=0;strokeWidth=3;" parent="1" source="9" target="5" edge="1">
                    <mxGeometry width="50" height="50" relative="1" as="geometry">
                        <mxPoint x="360" y="447" as="sourcePoint"/>
                        <mxPoint x="740" y="485" as="targetPoint"/>
                    </mxGeometry>
                </mxCell>
                <mxCell id="41" value="push" style="edgeLabel;html=1;align=center;verticalAlign=middle;resizable=0;points=[];" parent="40" vertex="1" connectable="0">
                    <mxGeometry x="0.0344" y="5" relative="1" as="geometry">
                        <mxPoint x="-1" as="offset"/>
                    </mxGeometry>
                </mxCell>
                <mxCell id="48" value="" style="edgeStyle=elbowEdgeStyle;elbow=horizontal;endArrow=classic;html=1;curved=0;rounded=0;endSize=8;startSize=8;exitX=0.5;exitY=1;exitDx=0;exitDy=0;entryX=0.5;entryY=1;entryDx=0;entryDy=0;strokeWidth=3;" parent="1" source="5" target="49" edge="1">
                    <mxGeometry width="50" height="50" relative="1" as="geometry">
                        <mxPoint x="790" y="430" as="sourcePoint"/>
                        <mxPoint x="690" y="587" as="targetPoint"/>
                        <Array as="points">
                            <mxPoint x="755" y="470"/>
                        </Array>
                    </mxGeometry>
                </mxCell>
                <mxCell id="50" value="broadcast" style="edgeLabel;html=1;align=center;verticalAlign=middle;resizable=0;points=[];" parent="48" vertex="1" connectable="0">
                    <mxGeometry x="0.246" y="-1" relative="1" as="geometry">
                        <mxPoint as="offset"/>
                    </mxGeometry>
                </mxCell>
                <mxCell id="49" value="" style="shape=partialRectangle;whiteSpace=wrap;html=1;bottom=1;right=1;left=1;top=0;fillColor=none;routingCenterX=-0.5;direction=north;strokeWidth=3;" parent="1" vertex="1">
                    <mxGeometry x="150" y="506" width="80" height="80" as="geometry"/>
                </mxCell>
                <mxCell id="52" value="" style="shape=partialRectangle;whiteSpace=wrap;html=1;bottom=1;right=1;left=1;top=0;fillColor=none;routingCenterX=-0.5;direction=north;strokeWidth=3;" parent="1" vertex="1">
                    <mxGeometry x="153" y="113" width="80" height="80" as="geometry"/>
                </mxCell>
                <mxCell id="53" value="" style="edgeStyle=elbowEdgeStyle;elbow=horizontal;endArrow=classic;html=1;curved=0;rounded=0;endSize=8;startSize=8;entryX=0.5;entryY=1;entryDx=0;entryDy=0;strokeWidth=3;exitX=0.5;exitY=0;exitDx=0;exitDy=0;" parent="1" edge="1">
                    <mxGeometry width="50" height="50" relative="1" as="geometry">
                        <mxPoint x="751" y="290" as="sourcePoint"/>
                        <mxPoint x="231" y="153" as="targetPoint"/>
                        <Array as="points">
                            <mxPoint x="756" y="230"/>
                        </Array>
                    </mxGeometry>
                </mxCell>
                <mxCell id="54" value="broadcast" style="edgeLabel;html=1;align=center;verticalAlign=middle;resizable=0;points=[];" parent="53" vertex="1" connectable="0">
                    <mxGeometry x="0.246" y="-1" relative="1" as="geometry">
                        <mxPoint as="offset"/>
                    </mxGeometry>
                </mxCell>
                <mxCell id="55" value="Content" style="shape=cylinder3;whiteSpace=wrap;html=1;boundedLbl=1;backgroundOutline=1;size=15;strokeWidth=2;" parent="1" vertex="1">
                    <mxGeometry x="300" y="188" width="40" height="46" as="geometry"/>
                </mxCell>
                <mxCell id="56" value="Content" style="shape=cylinder3;whiteSpace=wrap;html=1;boundedLbl=1;backgroundOutline=1;size=15;strokeWidth=2;" parent="1" vertex="1">
                    <mxGeometry x="294" y="480" width="40" height="50" as="geometry"/>
                </mxCell>
                <mxCell id="59" value="" style="endArrow=classic;html=1;exitX=0.5;exitY=0;exitDx=0;exitDy=0;exitPerimeter=0;entryX=0.5;entryY=1;entryDx=0;entryDy=0;" parent="1" source="56" target="9" edge="1">
                    <mxGeometry width="50" height="50" relative="1" as="geometry">
                        <mxPoint x="310" y="480" as="sourcePoint"/>
                        <mxPoint x="360" y="430" as="targetPoint"/>
                    </mxGeometry>
                </mxCell>
                <mxCell id="60" value="" style="endArrow=classic;html=1;exitX=0.5;exitY=1;exitDx=0;exitDy=0;exitPerimeter=0;entryX=0.5;entryY=0;entryDx=0;entryDy=0;" parent="1" source="55" target="6" edge="1">
                    <mxGeometry width="50" height="50" relative="1" as="geometry">
                        <mxPoint x="320" y="240" as="sourcePoint"/>
                        <mxPoint x="370" y="190" as="targetPoint"/>
                    </mxGeometry>
                </mxCell>
                <mxCell id="62" value="Admin" style="rounded=0;whiteSpace=wrap;html=1;strokeWidth=2;" parent="1" vertex="1">
                    <mxGeometry x="360" y="205" width="60" height="40" as="geometry"/>
                </mxCell>
                <mxCell id="65" style="edgeStyle=none;html=1;exitX=0;exitY=0.5;exitDx=0;exitDy=0;entryX=1;entryY=1;entryDx=0;entryDy=0;" parent="1" source="63" target="9" edge="1">
                    <mxGeometry relative="1" as="geometry"/>
                </mxCell>
                <mxCell id="63" value="Admin" style="rounded=0;whiteSpace=wrap;html=1;strokeWidth=2;" parent="1" vertex="1">
                    <mxGeometry x="360" y="473" width="60" height="40" as="geometry"/>
                </mxCell>
                <mxCell id="64" value="" style="endArrow=classic;html=1;exitX=0;exitY=0.5;exitDx=0;exitDy=0;entryX=1;entryY=0;entryDx=0;entryDy=0;" parent="1" source="62" target="6" edge="1">
                    <mxGeometry width="50" height="50" relative="1" as="geometry">
                        <mxPoint x="360" y="260" as="sourcePoint"/>
                        <mxPoint x="410" y="210" as="targetPoint"/>
                    </mxGeometry>
                </mxCell>
                <mxCell id="66" value="Original" style="shape=cylinder3;whiteSpace=wrap;html=1;boundedLbl=1;backgroundOutline=1;size=15;strokeWidth=2;" parent="1" vertex="1">
                    <mxGeometry x="519" y="468" width="50" height="50" as="geometry"/>
                </mxCell>
                <mxCell id="68" value="" style="endArrow=classic;html=1;exitX=0;exitY=0.5;exitDx=0;exitDy=0;exitPerimeter=0;entryX=1;entryY=0.5;entryDx=0;entryDy=0;" parent="1" source="66" target="63" edge="1">
                    <mxGeometry width="50" height="50" relative="1" as="geometry">
                        <mxPoint x="500" y="490" as="sourcePoint"/>
                        <mxPoint x="550" y="440" as="targetPoint"/>
                    </mxGeometry>
                </mxCell>
                <mxCell id="69" value="load" style="edgeLabel;html=1;align=center;verticalAlign=middle;resizable=0;points=[];" parent="68" vertex="1" connectable="0">
                    <mxGeometry y="1" relative="1" as="geometry">
                        <mxPoint as="offset"/>
                    </mxGeometry>
                </mxCell>
                <mxCell id="70" value="Original" style="shape=cylinder3;whiteSpace=wrap;html=1;boundedLbl=1;backgroundOutline=1;size=15;strokeWidth=2;" parent="1" vertex="1">
                    <mxGeometry x="519" y="200" width="50" height="50" as="geometry"/>
                </mxCell>
                <mxCell id="71" value="" style="endArrow=classic;html=1;exitX=0;exitY=0;exitDx=0;exitDy=30;exitPerimeter=0;entryX=0.933;entryY=0.617;entryDx=0;entryDy=0;entryPerimeter=0;" parent="1" source="70" target="62" edge="1">
                    <mxGeometry width="50" height="50" relative="1" as="geometry">
                        <mxPoint x="539" y="224" as="sourcePoint"/>
                        <mxPoint x="474" y="222" as="targetPoint"/>
                    </mxGeometry>
                </mxCell>
                <mxCell id="72" value="load" style="edgeLabel;html=1;align=center;verticalAlign=middle;resizable=0;points=[];" parent="71" vertex="1" connectable="0">
                    <mxGeometry y="1" relative="1" as="geometry">
                        <mxPoint as="offset"/>
                    </mxGeometry>
                </mxCell>
            </root>
        </mxGraphModel>
    </diagram>
</mxfile>